<?xml version="1.0" encoding="iso-8859-1"?>
<!-- Generator: Adobe Illustrator 19.0.0, SVG Export Plug-In . SVG Version: 6.00 Build 0)  -->
<svg version="1.1" id="Capa_1" xmlns="http://www.w3.org/2000/svg" xmlns:xlink="http://www.w3.org/1999/xlink" x="0px" y="0px"
	 viewBox="0 0 512 512" style="enable-background:new 0 0 512 512;" xml:space="preserve">
<circle style="fill:#FFDC00;" cx="256" cy="256" r="256"/>
<path style="fill:#FFC000;" d="M512,256c0-3.402-0.087-6.784-0.218-10.154L401.667,135.731l-103.728,51.606L233,122.397
	L98.333,253.064l95.585,95.585l-95.585,55.082l102.232,102.232C218.417,509.904,236.963,512,256,512
	C397.385,512,512,397.385,512,256z"/>
<rect x="195.33" y="180.4" style="fill:#AE4E32;" width="145.33" height="20"/>
<rect x="255.67" y="180.4" style="fill:#843523;" width="85" height="20"/>
<g>
	<rect x="139.33" y="220.06" style="fill:#AE4E32;" width="20" height="109"/>
	<rect x="220" y="325.06" style="fill:#AE4E32;" width="127" height="20"/>
</g>
<g>
	<rect x="255.67" y="325.06" style="fill:#843523;" width="91.33" height="20"/>
	<rect x="361.33" y="225.73" style="fill:#843523;" width="20" height="86.67"/>
</g>
<rect x="98.33" y="122.4" style="fill:#FF6838;" width="134.67" height="130.67"/>
<rect x="98.33" y="309.4" style="fill:#005C83;" width="134.67" height="94.33"/>
<rect x="311.67" y="272.19" style="fill:#00263F;" width="134.67" height="94.33"/>
<rect x="267" y="135.73" style="fill:#662E57;" width="134.67" height="112.12"/>
<g>
</g>
<g>
</g>
<g>
</g>
<g>
</g>
<g>
</g>
<g>
</g>
<g>
</g>
<g>
</g>
<g>
</g>
<g>
</g>
<g>
</g>
<g>
</g>
<g>
</g>
<g>
</g>
<g>
</g>
</svg>
