<?xml version="1.0" encoding="iso-8859-1"?>
<!-- Generator: Adobe Illustrator 19.0.0, SVG Export Plug-In . SVG Version: 6.00 Build 0)  -->
<svg version="1.1" id="Capa_1" xmlns="http://www.w3.org/2000/svg" xmlns:xlink="http://www.w3.org/1999/xlink" x="0px" y="0px"
	 viewBox="0 0 512 512" style="enable-background:new 0 0 512 512;" xml:space="preserve">
<circle style="fill:#005C83;" cx="256" cy="256" r="256"/>
<path style="fill:#00263F;" d="M512,256c0-12.301-0.887-24.393-2.564-36.231L420.667,131L91.333,381l128.436,128.436
	C231.607,511.113,243.699,512,256,512C397.385,512,512,397.385,512,256z"/>
<rect x="91.33" y="131" style="fill:#FFFFFF;" width="329.33" height="250"/>
<g>
	<rect x="256" y="131" style="fill:#E0E0E0;" width="164.67" height="250"/>
	<rect x="91.33" y="131" style="fill:#E0E0E0;" width="329.33" height="32.17"/>
</g>
<rect x="256" y="131" style="fill:#C0C0C0;" width="164.67" height="32.17"/>
<g>
	<circle style="fill:#FF6838;" cx="111.17" cy="147.08" r="8.917"/>
	<circle style="fill:#FF6838;" cx="137.92" cy="147.08" r="8.917"/>
	<circle style="fill:#FF6838;" cx="164.67" cy="147.08" r="8.917"/>
</g>
<rect x="120.08" y="185" style="fill:#FF9451;" width="270.92" height="58.5"/>
<rect x="255.67" y="185" style="fill:#F7674F;" width="135.33" height="58.5"/>
<rect x="120.08" y="267.5" style="fill:#FFD863;" width="102.42" height="90.5"/>
<g>
	<rect x="283" y="267.5" style="fill:#C0C0C0;" width="108" height="10"/>
	<rect x="283" y="287.62" style="fill:#C0C0C0;" width="108" height="10"/>
	<rect x="283" y="307.75" style="fill:#C0C0C0;" width="108" height="10"/>
	<rect x="283" y="327.87" style="fill:#C0C0C0;" width="108" height="10"/>
	<rect x="283" y="348" style="fill:#C0C0C0;" width="108" height="10"/>
</g>
<g>
</g>
<g>
</g>
<g>
</g>
<g>
</g>
<g>
</g>
<g>
</g>
<g>
</g>
<g>
</g>
<g>
</g>
<g>
</g>
<g>
</g>
<g>
</g>
<g>
</g>
<g>
</g>
<g>
</g>
</svg>
