<?xml version="1.0" encoding="iso-8859-1"?>
<!-- Generator: Adobe Illustrator 19.0.0, SVG Export Plug-In . SVG Version: 6.00 Build 0)  -->
<svg version="1.1" id="Capa_1" xmlns="http://www.w3.org/2000/svg" xmlns:xlink="http://www.w3.org/1999/xlink" x="0px" y="0px"
	 viewBox="0 0 512 512" style="enable-background:new 0 0 512 512;" xml:space="preserve">
<circle style="fill:#590F38;" cx="256" cy="256" r="256"/>
<path style="fill:#380925;" d="M445.264,204.911L381.5,195.5l-26.506,43.263l35.907,35.907l-15.56,19.966l-105.75-105.75
	l-18.542,99.61L150.014,187.46l-82.136,61.412l58.829,58.829l-53.775,24.064L253.13,511.963c0.957,0.01,1.91,0.036,2.869,0.036
	c136.285,0,247.679-106.5,255.539-240.813L445.264,204.911z"/>
<polygon style="fill:#FFFFFF;" points="242.394,188.887 242.398,283.048 212.623,253.273 193.391,272.506 255.998,335.113 
	318.602,272.506 299.369,253.273 269.596,283.048 269.592,188.887 "/>
<polygon style="fill:#E0E0E0;" points="255.999,335.113 318.602,272.506 299.369,253.273 269.596,283.048 269.592,188.887 
	255.999,188.887 "/>
<path style="fill:#FFC000;" d="M327.952,331.766c0-7.917,0.632-14.994,1.896-21.229c1.264-6.231,3.412-11.961,6.444-17.185
	c3.033-5.221,7.033-10.022,12.005-14.405c4.968-4.379,11.159-8.593,18.575-12.636c7.917-4.209,14.531-7.748,19.839-10.615
	c5.308-2.863,9.561-5.39,12.763-7.582c3.198-2.188,5.473-4.209,6.823-6.065c1.347-1.852,2.022-3.957,2.022-6.318
	c0-4.715-1.73-8.505-5.182-11.373c-3.455-2.863-8.3-4.296-14.531-4.296c-7.076,0-13.229,1.73-18.449,5.181
	c-5.224,3.455-10.278,7.961-15.163,13.521l-25.525-29.821c2.693-3.033,6.274-5.979,10.741-8.845
	c4.462-2.863,9.56-5.434,15.289-7.708c5.727-2.274,12.005-4.083,18.828-5.434c6.824-1.346,13.939-2.021,21.355-2.021
	c18.196,0,32.179,3.96,41.952,11.878c9.77,7.921,14.658,18.619,14.658,32.096c0,5.56-0.885,10.531-2.653,14.911
	c-1.77,4.383-4.087,8.3-6.95,11.751c-2.867,3.456-6.108,6.488-9.729,9.098c-3.625,2.614-7.29,5.015-10.994,7.203
	c-2.527,1.517-5.268,3.12-8.213,4.802c-2.95,1.687-5.856,3.499-8.72,5.434c-2.866,1.939-5.56,4.004-8.087,6.192
	c-2.527,2.192-4.719,4.549-6.571,7.076h64.698v36.393H327.952V331.766z"/>
<path style="fill:#FFDC00;" d="M182.109,295.373v36.393H72.933v-36.393h35.887v-64.445c-1.517,2.022-3.917,4.087-7.203,6.192
	c-3.285,2.109-6.866,4.043-10.74,5.813c-3.878,1.77-7.878,3.203-12.005,4.296c-4.13,1.098-7.795,1.643-10.993,1.643v-37.403
	c2.693,0,6.191-0.924,10.488-2.78c4.296-1.852,8.549-4.083,12.763-6.697c4.209-2.61,8-5.264,11.372-7.96
	c3.368-2.693,5.474-4.885,6.318-6.571h41.194v107.913h32.095V295.373z"/>
<g>
</g>
<g>
</g>
<g>
</g>
<g>
</g>
<g>
</g>
<g>
</g>
<g>
</g>
<g>
</g>
<g>
</g>
<g>
</g>
<g>
</g>
<g>
</g>
<g>
</g>
<g>
</g>
<g>
</g>
</svg>
