<?xml version="1.0" encoding="iso-8859-1"?>
<!-- Generator: Adobe Illustrator 19.0.0, SVG Export Plug-In . SVG Version: 6.00 Build 0)  -->
<svg version="1.1" id="Capa_1" xmlns="http://www.w3.org/2000/svg" xmlns:xlink="http://www.w3.org/1999/xlink" x="0px" y="0px"
	 viewBox="0 0 512.001 512.001" style="enable-background:new 0 0 512.001 512.001;" xml:space="preserve">
<circle style="fill:#005C83;" cx="256" cy="256" r="256"/>
<path style="fill:#00263F;" d="M510.205,286.313l-98.854-98.854l-81.929,61.257l-59.831-59.831l-15.955,85.265l-77.341-77.341
	L111.5,194.75l-17.844,44.013l35.945,35.945l-21.417,35.728l-41.57,21.33l180.047,180.047c3.101,0.111,6.211,0.188,9.339,0.188
	C387.126,512,495.21,413.408,510.205,286.313z"/>
<polygon style="fill:#FFFFFF;" points="242.394,188.887 242.398,283.048 212.623,253.273 193.391,272.506 255.998,335.113 
	318.602,272.506 299.369,253.273 269.596,283.048 269.592,188.887 "/>
<polygon style="fill:#E0E0E0;" points="255.999,335.113 318.602,272.506 299.369,253.273 269.596,283.048 269.592,188.887 
	255.999,188.887 "/>
<path style="fill:#FFC000;" d="M443.447,295.373v36.393H334.271v-36.393h35.887v-64.445c-1.517,2.022-3.917,4.087-7.202,6.192
	c-3.286,2.109-6.867,4.043-10.741,5.813c-3.878,1.77-7.878,3.203-12.004,4.296c-4.131,1.098-7.795,1.643-10.994,1.643v-37.403
	c2.693,0,6.192-0.924,10.488-2.78c4.296-1.852,8.549-4.083,12.763-6.697c4.209-2.61,8-5.264,11.372-7.96
	c3.369-2.693,5.474-4.885,6.318-6.571h41.194v107.913h32.095V295.373z"/>
<path style="fill:#FFDC00;" d="M66.614,331.766c0-7.917,0.632-14.994,1.896-21.229c1.264-6.231,3.412-11.961,6.445-17.185
	c3.033-5.221,7.033-10.022,12.004-14.405c4.967-4.379,11.159-8.593,18.575-12.636c7.917-4.209,14.532-7.748,19.839-10.615
	c5.307-2.863,9.56-5.39,12.763-7.582c3.198-2.188,5.473-4.209,6.823-6.065c1.347-1.852,2.022-3.957,2.022-6.318
	c0-4.715-1.729-8.505-5.181-11.373c-3.456-2.863-8.301-4.296-14.532-4.296c-7.076,0-13.229,1.73-18.449,5.181
	c-5.224,3.455-10.279,7.961-15.163,13.521L68.13,208.941c2.693-3.033,6.275-5.979,10.741-8.845c4.462-2.863,9.56-5.434,15.29-7.708
	c5.726-2.274,12.004-4.083,18.828-5.434c6.824-1.346,13.939-2.021,21.355-2.021c18.196,0,32.179,3.96,41.952,11.878
	c9.77,7.921,14.658,18.619,14.658,32.096c0,5.56-0.884,10.531-2.654,14.911c-1.769,4.383-4.087,8.3-6.95,11.751
	c-2.867,3.456-6.109,6.488-9.73,9.098c-3.625,2.614-7.29,5.015-10.994,7.203c-2.527,1.517-5.268,3.12-8.213,4.802
	c-2.95,1.687-5.856,3.499-8.719,5.434c-2.867,1.939-5.56,4.004-8.087,6.192c-2.527,2.192-4.719,4.549-6.571,7.076h64.697v36.393
	H66.614V331.766z"/>
<g>
</g>
<g>
</g>
<g>
</g>
<g>
</g>
<g>
</g>
<g>
</g>
<g>
</g>
<g>
</g>
<g>
</g>
<g>
</g>
<g>
</g>
<g>
</g>
<g>
</g>
<g>
</g>
<g>
</g>
</svg>
