<?xml version="1.0" encoding="iso-8859-1"?>
<!-- Generator: Adobe Illustrator 19.0.0, SVG Export Plug-In . SVG Version: 6.00 Build 0)  -->
<svg version="1.1" id="Capa_1" xmlns="http://www.w3.org/2000/svg" xmlns:xlink="http://www.w3.org/1999/xlink" x="0px" y="0px"
	 viewBox="0 0 512 512" style="enable-background:new 0 0 512 512;" xml:space="preserve">
<circle style="fill:#00BAFF;" cx="256" cy="256" r="256"/>
<path style="fill:#008CC3;" d="M97,349l162.95,162.95C399.511,509.836,512,396.064,512,256c0-22.793-2.995-44.884-8.584-65.918
	L415,101.667L97,349z"/>
<polygon style="fill:#E0E0E0;" points="321.839,420.536 190.161,420.536 209.124,322.797 302.876,322.797 "/>
<polygon style="fill:#C0C0C0;" points="302.876,322.797 256,322.797 256,420.536 321.839,420.536 "/>
<rect x="97" y="101.67" style="fill:#1A1A1A;" width="318" height="230.37"/>
<rect x="256" y="101.67" width="159" height="230.37"/>
<rect x="112.19" y="113.48" style="fill:#FFDC00;" width="287.63" height="223.71"/>
<rect x="256" y="113.48" style="fill:#FFC000;" width="143.81" height="223.71"/>
<rect x="97" y="280.33" style="fill:#FFFFFF;" width="318" height="68.67"/>
<g>
	<rect x="256" y="280.33" style="fill:#E0E0E0;" width="159" height="68.67"/>
	<circle style="fill:#E0E0E0;" cx="256" cy="307.67" r="14"/>
</g>
<path style="fill:#C0C0C0;" d="M256,293.667v28c7.732,0,14-6.268,14-14S263.732,293.667,256,293.667z"/>
<path style="fill:#FF6838;" d="M298.871,210.486h-20v-35.412c0-12.611-10.26-22.871-22.871-22.871s-22.871,10.26-22.871,22.871
	v35.412h-20v-35.412c0-23.639,19.231-42.871,42.871-42.871s42.871,19.231,42.871,42.871V210.486z"/>
<path style="fill:#AE4E32;" d="M256,132.203c-0.112,0-0.222,0.008-0.333,0.008v20c0.111-0.001,0.222-0.008,0.333-0.008
	c12.611,0,22.871,10.26,22.871,22.871v35.412h20v-35.412C298.871,151.435,279.639,132.203,256,132.203z"/>
<rect x="207.44" y="188.72" style="fill:#4D4D4D;" width="97.11" height="81.02"/>
<rect x="255.67" y="188.72" style="fill:#333333;" width="48.888" height="81.02"/>
<path style="fill:#1A1A1A;" d="M271.375,218.75c0-8.491-6.884-15.375-15.375-15.375s-15.375,6.884-15.375,15.375
	c0,6.574,4.134,12.168,9.937,14.367V251.5h10.875v-18.383C267.241,230.918,271.375,225.324,271.375,218.75z"/>
<path d="M256,203.375c-0.113,0-0.221,0.015-0.333,0.017V251.5h5.771v-18.383c5.804-2.199,9.938-7.793,9.938-14.367
	C271.375,210.259,264.491,203.375,256,203.375z"/>
<g>
</g>
<g>
</g>
<g>
</g>
<g>
</g>
<g>
</g>
<g>
</g>
<g>
</g>
<g>
</g>
<g>
</g>
<g>
</g>
<g>
</g>
<g>
</g>
<g>
</g>
<g>
</g>
<g>
</g>
</svg>
