<?xml version="1.0" encoding="iso-8859-1"?>
<!-- Generator: Adobe Illustrator 19.0.0, SVG Export Plug-In . SVG Version: 6.00 Build 0)  -->
<svg version="1.1" id="Capa_1" xmlns="http://www.w3.org/2000/svg" xmlns:xlink="http://www.w3.org/1999/xlink" x="0px" y="0px"
	 viewBox="0 0 512 512" style="enable-background:new 0 0 512 512;" xml:space="preserve">
<circle style="fill:#FFECB3;" cx="256" cy="256" r="256"/>
<path style="fill:#FFD863;" d="M272.042,511.485c122.324-7.566,221.384-101.021,237.61-220.802L391.548,172.579l-41.227,77.816
	l-80.729-80.729l-8.428,74.793l-71.88-71.88L79.276,201.645L134.23,256.6l-57.78,59.293L272.042,511.485z"/>
<polygon style="fill:#005C83;" points="242.394,169.667 242.398,263.828 212.623,234.053 193.391,253.286 255.998,315.893 
	318.602,253.286 299.369,234.053 269.596,263.828 269.592,169.667 "/>
<polygon style="fill:#00263F;" points="255.998,315.893 318.602,253.286 299.369,234.053 269.596,263.828 269.592,169.666 
	255.998,169.666 "/>
<path style="fill:#350923;" d="M309.597,315.893l55.104-143.314h26.847l54.903,143.314h-35.122l-11.102-32.094h-44.609
	l-10.899,32.094H309.597z M378.023,207.701l-17.157,53.289h33.709L378.023,207.701z"/>
<path style="fill:#590F38;" d="M76.45,291.065l74.482-89.42H79.276v-29.066h110.008v24.828l-71.253,89.42h72.061v29.066H76.45
	V291.065z"/>
<g>
</g>
<g>
</g>
<g>
</g>
<g>
</g>
<g>
</g>
<g>
</g>
<g>
</g>
<g>
</g>
<g>
</g>
<g>
</g>
<g>
</g>
<g>
</g>
<g>
</g>
<g>
</g>
<g>
</g>
</svg>
