<?xml version="1.0" encoding="iso-8859-1"?>
<!-- Generator: Adobe Illustrator 19.0.0, SVG Export Plug-In . SVG Version: 6.00 Build 0)  -->
<svg version="1.1" id="Capa_1" xmlns="http://www.w3.org/2000/svg" xmlns:xlink="http://www.w3.org/1999/xlink" x="0px" y="0px"
	 viewBox="0 0 512 512" style="enable-background:new 0 0 512 512;" xml:space="preserve">
<circle style="fill:#590F38;" cx="256" cy="256" r="256"/>
<path style="fill:#3F0B2A;" d="M512,256c0-6.552-0.249-13.046-0.732-19.474L399.707,124.965l-284.37,74.408l67.24,66.274
	l-10.736,0.067l-64.376-64.376V213.5l10.197,52.55l82.429,82.35l-6.461,3.816l-86.166-86.166v11.783l20.434,113.209l-21.9,12.936
	l103.866,103.866C224.831,510.569,240.248,512,256,512C397.385,512,512,397.385,512,256z"/>
<path style="fill:#E0E0E0;" d="M402.824,129.626c-0.025-0.05-0.055-0.1-0.081-0.15c-0.284-0.563-0.607-1.123-0.957-1.679
	c-0.228-0.361-0.469-0.722-0.723-1.08c-0.904-1.273-1.968-2.527-3.205-3.758c-4.54-4.517-11.28-8.733-19.817-12.533
	c-0.506-0.226-1.017-0.45-1.536-0.672C349.528,98.19,305.608,90.664,256,90.664c-0.111,0-0.222,0.001-0.333,0.001l0,0
	c-81.88,0.056-148.202,20.611-148.202,45.96v47.945c0,25.384,66.501,45.962,148.535,45.962s148.535-20.578,148.535-45.962v-47.945
	C404.535,134.246,403.951,131.908,402.824,129.626z"/>
<ellipse style="fill:#FFFFFF;" cx="256" cy="136.63" rx="148.53" ry="45.962"/>
<path style="fill:#E0E0E0;" d="M256,90.664c-0.111,0-0.222,0.001-0.333,0.001v91.921c0.111,0,0.222,0.001,0.333,0.001
	c82.034,0,148.535-20.578,148.535-45.962C404.535,111.242,338.034,90.664,256,90.664z"/>
<path style="fill:#C0C0C0;" d="M256,182.587c-0.111,0-0.222-0.001-0.333-0.001v47.945c0.111,0,0.222,0.001,0.333,0.001
	c82.034,0,148.535-20.578,148.535-45.962v-47.945C404.535,162.01,338.034,182.587,256,182.587z"/>
<path style="fill:#E0E0E0;" d="M107.465,249.283c0,25.384,66.502,45.962,148.535,45.962s148.535-20.578,148.535-45.962v-47.945
	c0,25.384-66.502,45.962-148.535,45.962s-148.535-20.578-148.535-45.962V249.283z"/>
<path style="fill:#C0C0C0;" d="M256,247.3c-0.111,0-0.222-0.001-0.333-0.001v47.945c0.111,0,0.222,0.001,0.333,0.001
	c82.034,0,148.535-20.578,148.535-45.962v-47.945C404.535,226.722,338.034,247.3,256,247.3z"/>
<path style="fill:#E0E0E0;" d="M107.465,313.995c0,25.384,66.502,45.962,148.535,45.962s148.535-20.578,148.535-45.962V266.05
	c0,25.384-66.502,45.962-148.535,45.962s-148.535-20.578-148.535-45.962V313.995z"/>
<path style="fill:#C0C0C0;" d="M256,312.012c-0.111,0-0.222-0.001-0.333-0.001v47.945c0.111,0,0.222,0.001,0.333,0.001
	c82.034,0,148.535-20.578,148.535-45.962V266.05C404.535,291.434,338.034,312.012,256,312.012z"/>
<path style="fill:#E0E0E0;" d="M107.465,378.708c0,25.384,66.502,45.962,148.535,45.962s148.535-20.578,148.535-45.962v-47.945
	c0,25.384-66.502,45.962-148.535,45.962s-148.535-20.578-148.535-45.962V378.708z"/>
<path style="fill:#C0C0C0;" d="M256,376.725c-0.111,0-0.222-0.001-0.333-0.001v47.945c0.111,0,0.222,0.001,0.333,0.001
	c82.034,0,148.535-20.578,148.535-45.962v-47.945C404.535,356.146,338.034,376.725,256,376.725z"/>
<circle style="fill:#39B54A;" cx="159.5" cy="347.34" r="77.918"/>
<path style="fill:#009245;" d="M159.499,269.418c-0.167,0-0.332,0.012-0.499,0.013v155.81c0.167,0.001,0.332,0.013,0.499,0.013
	c43.033,0,77.918-34.885,77.918-77.917S202.532,269.418,159.499,269.418z"/>
<path style="fill:#FFFFFF;" d="M203.77,316.599l-5.555,16.621c-6.878-17.681-24.07-30.251-44.154-30.251
	c-26.118,0-47.366,21.249-47.366,47.367s21.248,47.367,47.366,47.367v-18c-16.192,0-29.366-13.174-29.366-29.367
	s13.174-29.367,29.366-29.367c12.919,0,23.908,8.389,27.827,20.002l-16.259-5.44l-5.711,17.07l45.688,15.286l15.236-45.582
	L203.77,316.599z"/>
<path style="fill:#E0E0E0;" d="M203.77,316.599l-5.555,16.621c-6.306-16.212-21.287-28.119-39.214-29.987v18.159
	c10.722,1.826,19.479,9.479,22.888,19.579l-16.259-5.44l-5.711,17.07l45.688,15.286l15.236-45.582L203.77,316.599z"/>
<g>
</g>
<g>
</g>
<g>
</g>
<g>
</g>
<g>
</g>
<g>
</g>
<g>
</g>
<g>
</g>
<g>
</g>
<g>
</g>
<g>
</g>
<g>
</g>
<g>
</g>
<g>
</g>
<g>
</g>
</svg>
