<?xml version="1.0" encoding="iso-8859-1"?>
<!-- Generator: Adobe Illustrator 19.0.0, SVG Export Plug-In . SVG Version: 6.00 Build 0)  -->
<svg version="1.1" id="Capa_1" xmlns="http://www.w3.org/2000/svg" xmlns:xlink="http://www.w3.org/1999/xlink" x="0px" y="0px"
	 viewBox="0 0 512 512" style="enable-background:new 0 0 512 512;" xml:space="preserve">
<circle style="fill:#FFDC00;" cx="256" cy="256" r="256"/>
<path style="fill:#FFC000;" d="M511.936,261.028L388.408,137.5l-40.366,15.599l-52.58-52.58L83.341,265.501l50.692,50.692
	l-19.203,61.152l134.572,134.572c2.193,0.056,4.392,0.083,6.598,0.083C395.704,512,509.256,400.09,511.936,261.028z"/>
<polygon style="fill:#AE4E32;" points="388.408,291.536 363.408,291.536 363.408,162.5 242.351,162.5 242.351,137.5 388.408,137.5 
	"/>
<polygon style="fill:#FF6838;" points="323.238,377.345 114.83,377.345 114.83,246.23 139.83,246.23 139.83,352.345 
	323.238,352.345 "/>
<rect x="255.67" y="352.35" style="fill:#AE4E32;" width="67.57" height="25"/>
<polygon style="fill:#E0E0E0;" points="233.32,313.219 145.484,313.219 158.133,248.023 220.671,248.023 "/>
<polygon style="fill:#C0C0C0;" points="220.671,248.023 189.238,248.023 189.238,313.219 233.319,313.219 "/>
<polygon style="fill:#1A1A1A;" points="280.986,250.771 97.818,250.771 83.341,222.168 83.341,100.518 295.462,100.518 
	295.462,222.267 "/>
<rect x="189.24" y="100.52" width="106.22" height="150.25"/>
<rect x="97.82" y="114.65" style="fill:#35CCFF;" width="183.17" height="142.46"/>
<rect x="189.24" y="114.65" style="fill:#00BAFF;" width="91.75" height="142.46"/>
<rect x="83.34" y="222.17" style="fill:#FFFFFF;" width="212.12" height="43.33"/>
<g>
	<rect x="189.24" y="222.17" style="fill:#E0E0E0;" width="106.22" height="43.33"/>
	<circle style="fill:#E0E0E0;" cx="189.4" cy="241.43" r="9.339"/>
</g>
<path style="fill:#C0C0C0;" d="M189.402,232.093c-0.055,0-0.109,0.007-0.164,0.008v18.661c0.055,0.001,0.108,0.008,0.164,0.008
	c5.158,0,9.339-4.181,9.339-9.339C198.74,236.274,194.559,232.093,189.402,232.093z"/>
<rect x="311.87" y="221.61" style="fill:#333333;" width="108.13" height="179.84"/>
<rect x="365.94" y="221.61" style="fill:#1A1A1A;" width="54.06" height="179.84"/>
<g>
	<rect id="SVGCleanerId_0" x="323.24" y="232.57" style="fill:#00BAFF;" width="85.39" height="140.76"/>
</g>
<g>
	<rect id="SVGCleanerId_0_1_" x="323.24" y="232.57" style="fill:#00BAFF;" width="85.39" height="140.76"/>
</g>
<circle style="fill:#4D4D4D;" cx="365.94" cy="386.53" r="8.05"/>
<g>
	<rect id="SVGCleanerId_0_2_" x="323.24" y="232.57" style="fill:#00BAFF;" width="85.39" height="140.76"/>
</g>
<rect x="365.94" y="232.57" style="fill:#008CC3;" width="42.697" height="140.76"/>
<path style="fill:#333333;" d="M365.935,378.475v16.109c4.448,0,8.055-3.606,8.055-8.055S370.384,378.475,365.935,378.475z"/>
<g>
</g>
<g>
</g>
<g>
</g>
<g>
</g>
<g>
</g>
<g>
</g>
<g>
</g>
<g>
</g>
<g>
</g>
<g>
</g>
<g>
</g>
<g>
</g>
<g>
</g>
<g>
</g>
<g>
</g>
</svg>
