<?xml version="1.0" encoding="iso-8859-1"?>
<!-- Generator: Adobe Illustrator 19.0.0, SVG Export Plug-In . SVG Version: 6.00 Build 0)  -->
<svg version="1.1" id="Capa_1" xmlns="http://www.w3.org/2000/svg" xmlns:xlink="http://www.w3.org/1999/xlink" x="0px" y="0px"
	 viewBox="0 0 512 512" style="enable-background:new 0 0 512 512;" xml:space="preserve">
<circle style="fill:#00BAFF;" cx="256" cy="256" r="256"/>
<path style="fill:#008CC3;" d="M512,256c0-6.552-0.249-13.046-0.732-19.474L399.707,124.965l-284.37,74.408l14.881,14.667
	l-17.968,5.46l-4.785-18.162v16.287l10.197,48.425l-9.977-18.818l-6.461,3.816l6.24,15.002v14.45l7.785,92.25l-39.31,15.481
	l133.925,119.614C224.831,510.569,240.248,512,256,512C397.385,512,512,397.385,512,256z"/>
<path style="fill:#E0E0E0;" d="M402.824,129.626c-0.025-0.05-0.055-0.1-0.081-0.15c-0.284-0.563-0.607-1.123-0.957-1.679
	c-0.228-0.361-0.469-0.722-0.723-1.08c-0.904-1.273-1.968-2.527-3.205-3.758c-4.54-4.517-11.28-8.733-19.817-12.533
	c-0.506-0.226-1.017-0.45-1.536-0.672C349.528,98.19,305.608,90.664,256,90.664c-0.111,0-0.222,0.001-0.333,0.001l0,0
	c-81.88,0.056-148.202,20.611-148.202,45.96v47.945c0,25.384,66.501,45.962,148.535,45.962s148.535-20.578,148.535-45.962v-47.945
	C404.535,134.246,403.951,131.908,402.824,129.626z"/>
<ellipse style="fill:#FFFFFF;" cx="256" cy="136.63" rx="148.53" ry="45.962"/>
<path style="fill:#E0E0E0;" d="M256,90.664c-0.111,0-0.222,0.001-0.333,0.001v91.921c0.111,0,0.222,0.001,0.333,0.001
	c82.034,0,148.535-20.578,148.535-45.962C404.535,111.242,338.034,90.664,256,90.664z"/>
<path style="fill:#C0C0C0;" d="M256,182.587c-0.111,0-0.222-0.001-0.333-0.001v47.945c0.111,0,0.222,0.001,0.333,0.001
	c82.034,0,148.535-20.578,148.535-45.962v-47.945C404.535,162.01,338.034,182.587,256,182.587z"/>
<path style="fill:#E0E0E0;" d="M107.465,249.283c0,25.384,66.502,45.962,148.535,45.962s148.535-20.578,148.535-45.962v-47.945
	c0,25.384-66.502,45.962-148.535,45.962s-148.535-20.578-148.535-45.962V249.283z"/>
<path style="fill:#C0C0C0;" d="M256,247.3c-0.111,0-0.222-0.001-0.333-0.001v47.945c0.111,0,0.222,0.001,0.333,0.001
	c82.034,0,148.535-20.578,148.535-45.962v-47.945C404.535,226.722,338.034,247.3,256,247.3z"/>
<path style="fill:#E0E0E0;" d="M107.465,313.995c0,25.384,66.502,45.962,148.535,45.962s148.535-20.578,148.535-45.962V266.05
	c0,25.384-66.502,45.962-148.535,45.962s-148.535-20.578-148.535-45.962V313.995z"/>
<path style="fill:#C0C0C0;" d="M256,312.012c-0.111,0-0.222-0.001-0.333-0.001v47.945c0.111,0,0.222,0.001,0.333,0.001
	c82.034,0,148.535-20.578,148.535-45.962V266.05C404.535,291.434,338.034,312.012,256,312.012z"/>
<path style="fill:#E0E0E0;" d="M107.465,378.708c0,25.384,66.502,45.962,148.535,45.962s148.535-20.578,148.535-45.962v-47.945
	c0,25.384-66.502,45.962-148.535,45.962s-148.535-20.578-148.535-45.962V378.708z"/>
<path style="fill:#C0C0C0;" d="M256,376.725c-0.111,0-0.222-0.001-0.333-0.001v47.945c0.111,0,0.222,0.001,0.333,0.001
	c82.034,0,148.535-20.578,148.535-45.962v-47.945C404.535,356.146,338.034,376.725,256,376.725z"/>
<path style="fill:#FF6838;" d="M208.635,302.238h-29.028v-51.397c0-18.303-14.891-33.194-33.195-33.194
	c-18.303,0-33.194,14.891-33.194,33.194v51.397H84.19v-51.397c0-34.31,27.913-62.223,62.222-62.223s62.223,27.913,62.223,62.223
	L208.635,302.238L208.635,302.238z"/>
<path style="fill:#AE4E32;" d="M146.412,188.618c-0.28,0-0.557,0.017-0.836,0.021v29.049c0.281-0.007,0.554-0.043,0.836-0.043
	c18.304,0,33.195,14.891,33.195,33.195v51.397h29.028V250.84C208.635,216.53,180.722,188.618,146.412,188.618z"/>
<rect x="75.94" y="270.64" style="fill:#4D4D4D;" width="140.94" height="117.58"/>
<rect x="145.58" y="270.64" style="fill:#333333;" width="71.31" height="117.59"/>
<path style="fill:#1A1A1A;" d="M168.727,314.233c0-12.324-9.991-22.315-22.315-22.315s-22.315,9.991-22.315,22.315
	c0,9.542,6,17.661,14.423,20.853v26.681h15.784v-26.681C162.728,331.894,168.727,323.775,168.727,314.233z"/>
<path d="M146.412,291.918c-0.282,0-0.556,0.031-0.836,0.042v69.807h8.728v-26.681c8.424-3.191,14.423-11.31,14.423-20.852
	C168.727,301.909,158.737,291.918,146.412,291.918z"/>
<g>
</g>
<g>
</g>
<g>
</g>
<g>
</g>
<g>
</g>
<g>
</g>
<g>
</g>
<g>
</g>
<g>
</g>
<g>
</g>
<g>
</g>
<g>
</g>
<g>
</g>
<g>
</g>
<g>
</g>
</svg>
