<?xml version="1.0" encoding="iso-8859-1"?>
<!-- Generator: Adobe Illustrator 19.0.0, SVG Export Plug-In . SVG Version: 6.00 Build 0)  -->
<svg version="1.1" id="Capa_1" xmlns="http://www.w3.org/2000/svg" xmlns:xlink="http://www.w3.org/1999/xlink" x="0px" y="0px"
	 viewBox="0 0 512 512" style="enable-background:new 0 0 512 512;" xml:space="preserve">
<circle style="fill:#005C83;" cx="256" cy="256" r="256"/>
<path style="fill:#00263F;" d="M512,256c0-2.436-0.042-4.861-0.109-7.28L397.158,133.987L114.842,322.248l88.507,88.506L103.5,428.5
	l69.862,69.862C199.288,507.2,227.083,512,256,512C397.385,512,512,397.385,512,256z"/>
<rect x="225" y="283.67" style="fill:#FF6838;" width="62" height="141.59"/>
<rect x="255.67" y="283.67" style="fill:#AE4E32;" width="31.33" height="141.59"/>
<rect x="212" y="244.17" style="fill:#FF9451;" width="88" height="101.83"/>
<rect x="255.67" y="244.17" style="fill:#F7674F;" width="44.33" height="101.83"/>
<rect x="103.5" y="393" style="fill:#FF6838;" width="305" height="35.5"/>
<rect x="255.67" y="393" style="fill:#AE4E32;" width="152.83" height="35.5"/>
<rect x="195" y="382.5" style="fill:#FF9451;" width="122" height="56.5"/>
<rect x="255.67" y="382.5" style="fill:#F7674F;" width="61.33" height="56.5"/>
<polygon style="fill:#FFDC00;" points="397.158,322.247 114.842,322.247 114.842,102.919 191.474,102.919 221.15,133.987 
	397.158,133.987 "/>
<rect x="255.67" y="133.99" style="fill:#FFC000;" width="141.49" height="188.26"/>
<g>
</g>
<g>
</g>
<g>
</g>
<g>
</g>
<g>
</g>
<g>
</g>
<g>
</g>
<g>
</g>
<g>
</g>
<g>
</g>
<g>
</g>
<g>
</g>
<g>
</g>
<g>
</g>
<g>
</g>
</svg>
