<?xml version="1.0" encoding="iso-8859-1"?>
<!-- Generator: Adobe Illustrator 19.0.0, SVG Export Plug-In . SVG Version: 6.00 Build 0)  -->
<svg version="1.1" id="Capa_1" xmlns="http://www.w3.org/2000/svg" xmlns:xlink="http://www.w3.org/1999/xlink" x="0px" y="0px"
	 viewBox="0 0 512 512" style="enable-background:new 0 0 512 512;" xml:space="preserve">
<circle style="fill:#FFECB3;" cx="256" cy="256" r="256"/>
<g>
	<path style="fill:#FFD863;" d="M479.326,381.202l-135.229-135.97l-16.166,18.853l-81.764-81.764l-21.353,18.768l-49.488-49.488
		L116.667,122l-29.022,46.572l33.097,33.097l-9.345,195.946l112.371,112.371C234.325,511.313,245.082,512,256,512
		C351.902,512,435.473,459.256,479.326,381.202z"/>
	<path style="fill:#FFD863;" d="M509.09,294.701L375.857,161.467l-53.073,48.369l161.737,161.646
		C496.528,347.771,504.959,321.943,509.09,294.701z"/>
</g>
<circle style="fill:#662E57;" cx="182.21" cy="311.5" r="31.5"/>
<path style="fill:#590F38;" d="M182.21,280c-0.182,0-0.362,0.011-0.543,0.014v62.973c0.181,0.003,0.361,0.014,0.543,0.014
	c17.397,0,31.5-14.103,31.5-31.5S199.607,280,182.21,280z"/>
<circle style="fill:#35CCFF;" cx="351.01" cy="187.5" r="36"/>
<path style="fill:#00BAFF;" d="M351.006,151.5c-0.226,0-0.448,0.013-0.673,0.017v71.966c0.225,0.004,0.447,0.017,0.673,0.017
	c19.882,0,36-16.118,36-36S370.888,151.5,351.006,151.5z"/>
<circle style="fill:#FF6838;" cx="218.26" cy="205.15" r="36.05"/>
<path style="fill:#AE4E32;" d="M254.317,205.15c0-19.889-16.104-36.014-35.984-36.052v72.104
	C238.213,241.164,254.317,225.038,254.317,205.15z"/>
<circle style="fill:#FF3F84;" cx="311.52" cy="279.76" r="47.49"/>
<path style="fill:#983262;" d="M311.521,232.279c-0.175,0-0.346,0.011-0.521,0.013v94.945c0.174,0.002,0.346,0.013,0.521,0.013
	c26.226,0,47.486-21.26,47.486-47.485S337.746,232.279,311.521,232.279z"/>
<polygon style="fill:#175D76;" points="352.771,333.314 335.802,350.288 359.137,373.615 135.396,373.615 135.396,145.614 
	158.355,168.572 175.326,151.602 123,99.276 70.674,151.602 87.645,168.572 111.396,144.821 111.396,397.615 359.126,397.615 
	335.781,420.941 352.744,437.919 405.09,385.618 "/>
<polygon style="fill:#00263F;" points="111.396,397.615 359.126,397.615 335.781,420.941 352.744,437.919 405.09,385.618 
	352.771,333.314 335.802,350.288 359.137,373.615 135.396,373.615 "/>
<g>
</g>
<g>
</g>
<g>
</g>
<g>
</g>
<g>
</g>
<g>
</g>
<g>
</g>
<g>
</g>
<g>
</g>
<g>
</g>
<g>
</g>
<g>
</g>
<g>
</g>
<g>
</g>
<g>
</g>
</svg>
