<?xml version="1.0" encoding="iso-8859-1"?>
<!-- Generator: Adobe Illustrator 19.0.0, SVG Export Plug-In . SVG Version: 6.00 Build 0)  -->
<svg version="1.1" id="Capa_1" xmlns="http://www.w3.org/2000/svg" xmlns:xlink="http://www.w3.org/1999/xlink" x="0px" y="0px"
	 viewBox="0 0 512 512" style="enable-background:new 0 0 512 512;" xml:space="preserve">
<circle style="fill:#35CCFF;" cx="256" cy="256" r="256"/>
<path style="fill:#00BAFF;" d="M512,256c0-12.301-0.887-24.393-2.564-36.23L420.667,131L91.333,381l128.436,128.436
	C231.607,511.113,243.699,512,256,512C397.385,512,512,397.385,512,256z"/>
<rect x="91.33" y="131" style="fill:#FFFFFF;" width="329.33" height="250"/>
<g>
	<rect x="256" y="131" style="fill:#E0E0E0;" width="164.67" height="250"/>
	<rect x="91.33" y="131" style="fill:#E0E0E0;" width="329.33" height="32.17"/>
</g>
<rect x="256" y="131" style="fill:#C0C0C0;" width="164.67" height="32.17"/>
<g>
	<circle style="fill:#FF6838;" cx="111.17" cy="147.08" r="8.917"/>
	<circle style="fill:#FF6838;" cx="137.92" cy="147.08" r="8.917"/>
	<circle style="fill:#FF6838;" cx="164.67" cy="147.08" r="8.917"/>
</g>
<path style="fill:#005C83;" d="M398.935,288.631l12.22-12.22c-6.986-9.995-15.69-18.699-25.685-25.685l-12.22,12.22
	c-8.682-5.628-18.436-9.741-28.888-11.972v-17.289c-5.897-1.043-11.966-1.589-18.162-1.589c-6.196,0-12.265,0.546-18.162,1.589
	v17.289c-10.452,2.23-20.205,6.344-28.888,11.971l-12.22-12.22c-9.995,6.986-18.699,15.69-25.685,25.685l12.22,12.22
	c-5.628,8.682-9.741,18.436-11.972,28.888h-17.289c-1.043,5.897-1.589,11.966-1.589,18.162c0,6.196,0.546,12.265,1.589,18.162
	h17.289c2.23,10.452,6.344,20.205,11.972,28.888l-12.22,12.22c6.986,9.995,15.69,18.699,25.685,25.685l12.22-12.22
	c8.682,5.628,18.436,9.741,28.888,11.972v17.289c5.897,1.043,11.966,1.589,18.162,1.589c6.196,0,12.265-0.546,18.162-1.589v-17.289
	c10.452-2.23,20.205-6.344,28.888-11.972l12.22,12.22c9.995-6.986,18.699-15.69,25.685-25.685l-12.22-12.22
	c5.628-8.683,9.741-18.436,11.972-28.888h17.289c1.043-5.897,1.589-11.966,1.589-18.162c0-6.196-0.546-12.265-1.589-18.162h-17.289
	C408.676,307.067,404.563,297.314,398.935,288.631z M326.2,373.937c-21.128,0-38.256-17.128-38.256-38.256
	s17.128-38.256,38.256-38.256s38.256,17.128,38.256,38.256S347.327,373.937,326.2,373.937z"/>
<path style="fill:#00263F;" d="M428.195,353.844c1.043-5.897,1.589-11.966,1.589-18.163c0-6.196-0.546-12.265-1.589-18.162h-17.289
	c-2.23-10.452-6.344-20.206-11.971-28.888l12.22-12.22c-6.986-9.995-15.69-18.699-25.685-25.685l-12.22,12.22
	c-8.682-5.628-18.436-9.742-28.888-11.972v-17.289c-5.897-1.043-11.966-1.589-18.162-1.589c-0.402,0-0.799,0.022-1.199,0.026v65.333
	c0.399-0.012,0.797-0.03,1.199-0.03c21.128,0,38.256,17.127,38.256,38.255s-17.127,38.256-38.256,38.256
	c-0.402,0-0.8-0.018-1.199-0.03v65.333c0.401,0.004,0.798,0.026,1.199,0.026c6.197,0,12.265-0.546,18.162-1.589v-17.289
	c10.452-2.23,20.205-6.344,28.888-11.972l12.22,12.22c9.995-6.986,18.699-15.69,25.685-25.686l-12.22-12.22
	c5.628-8.683,9.741-18.436,11.971-28.888h17.289V353.844z"/>
<g>
	<path style="fill:#005C83;" d="M127.042,244.056v-10.509H105.87v-10.97l25.085-32.066h8.361V222.5h6.75v11.047h-6.75v10.509
		H127.042z M118.066,222.5h10.356v-13.578L118.066,222.5z"/>
	<path style="fill:#005C83;" d="M197.25,216.443c0,4.042-0.544,7.763-1.631,11.162c-1.088,3.399-2.584,6.338-4.487,8.819
		c-1.904,2.48-4.16,4.409-6.771,5.787c-2.61,1.379-5.439,2.068-8.484,2.068c-3.046,0-5.861-0.689-8.443-2.068
		c-2.584-1.378-4.827-3.307-6.73-5.787c-1.905-2.48-3.4-5.42-4.487-8.819c-1.088-3.399-1.631-7.12-1.631-11.162
		c0-4.042,0.543-7.762,1.631-11.161c1.087-3.398,2.582-6.338,4.487-8.819c1.903-2.48,4.146-4.424,6.73-5.833
		c2.582-1.408,5.397-2.113,8.443-2.113c3.045,0,5.874,0.705,8.484,2.113c2.611,1.409,4.867,3.353,6.771,5.833
		c1.903,2.48,3.398,5.42,4.487,8.819C196.706,208.681,197.25,212.401,197.25,216.443z M184.035,216.443
		c0-4.286-0.762-7.762-2.284-10.426c-1.523-2.664-3.481-3.996-5.874-3.996c-2.447,0-4.433,1.332-5.955,3.996
		c-1.523,2.664-2.284,6.14-2.284,10.426c0,4.288,0.761,7.749,2.284,10.381c1.522,2.634,3.508,3.95,5.955,3.95
		c2.393,0,4.351-1.316,5.874-3.95C183.272,224.192,184.035,220.731,184.035,216.443z"/>
	<path style="fill:#005C83;" d="M223.674,244.056v-10.509h-21.172v-10.97l25.085-32.066h8.361V222.5h6.75v11.047h-6.75v10.509
		H223.674z M214.699,222.5h10.356v-13.578L214.699,222.5z"/>
</g>
<g>
</g>
<g>
</g>
<g>
</g>
<g>
</g>
<g>
</g>
<g>
</g>
<g>
</g>
<g>
</g>
<g>
</g>
<g>
</g>
<g>
</g>
<g>
</g>
<g>
</g>
<g>
</g>
<g>
</g>
</svg>
