<?xml version="1.0" encoding="iso-8859-1"?>
<!-- Generator: Adobe Illustrator 19.0.0, SVG Export Plug-In . SVG Version: 6.00 Build 0)  -->
<svg version="1.1" id="Capa_1" xmlns="http://www.w3.org/2000/svg" xmlns:xlink="http://www.w3.org/1999/xlink" x="0px" y="0px"
	 viewBox="0 0 512 512" style="enable-background:new 0 0 512 512;" xml:space="preserve">
<circle style="fill:#B9EAFF;" cx="256" cy="256" r="256"/>
<path style="fill:#35CCFF;" d="M512,256c0-12.164-0.868-24.123-2.509-35.835L406.839,117.513l-279.051,279.05l115.106,115.106
	c4.341,0.219,8.71,0.331,13.106,0.331C397.385,512,512,397.385,512,256z"/>
<polygon style="fill:#005C83;" points="404.602,140.973 404.602,140.973 255.667,140.973 255.667,140.973 107.398,140.973 
	107.398,194.875 107.398,194.875 209.087,320.454 302.913,320.454 404.602,194.875 404.602,194.875 404.602,194.875 
	404.602,194.875 404.602,194.875 "/>
<rect x="107.4" y="140.97" style="fill:#0074A3;" width="297.2" height="53.902"/>
<rect x="255.67" y="140.97" style="fill:#005C83;" width="148.94" height="53.902"/>
<polygon style="fill:#00263F;" points="404.602,194.875 255.667,194.875 255.667,320.454 302.913,320.454 "/>
<polygon style="fill:#0074A3;" points="209.087,410.085 302.913,443.9 302.913,320.454 209.087,320.454 "/>
<polygon style="fill:#005C83;" points="302.913,320.454 255.667,320.454 255.667,426.872 302.913,443.9 "/>
<rect x="239.992" y="48.405" transform="matrix(-0.7071 -0.7071 0.7071 -0.7071 263.2526 600.4886)" style="fill:#F1333F;" width="31.999" height="394.636"/>
<polygon style="fill:#AE283F;" points="384.212,94.886 255.667,223.431 255.667,268.685 406.839,117.513 "/>
<g>
</g>
<g>
</g>
<g>
</g>
<g>
</g>
<g>
</g>
<g>
</g>
<g>
</g>
<g>
</g>
<g>
</g>
<g>
</g>
<g>
</g>
<g>
</g>
<g>
</g>
<g>
</g>
<g>
</g>
</svg>
