<?xml version="1.0" encoding="iso-8859-1"?>
<!-- Generator: Adobe Illustrator 19.0.0, SVG Export Plug-In . SVG Version: 6.00 Build 0)  -->
<svg version="1.1" id="Capa_1" xmlns="http://www.w3.org/2000/svg" xmlns:xlink="http://www.w3.org/1999/xlink" x="0px" y="0px"
	 viewBox="0 0 512 512" style="enable-background:new 0 0 512 512;" xml:space="preserve">
<circle style="fill:#005C83;" cx="256" cy="256" r="256"/>
<path style="fill:#00263F;" d="M512,256c0-2.072-0.03-4.138-0.078-6.198L397.274,135.154l-5.983,6.782L326.354,77L165.75,99
	L84,199.333L80.75,291l5.62,43.005l39.414,38.864l-3.286,2.348L82.382,335.1v3.244l5.274,30.233l18.466,18.345l-3.146,2.249
	l-20.593-20.593v3.795l4.035,28.632l102.181,102.009C210.075,508.861,232.669,512,256,512C397.385,512,512,397.385,512,256z"/>
<path style="fill:#FF6838;" d="M329.217,402c-22.036,11.096-46.907,17.356-73.217,17.356c-30.734,0-59.51-8.537-84.09-23.356
	h-38.229c32.723,28.626,75.528,46,122.319,46c43.427,0,83.422-14.963,115.11-40H329.217z"/>
<path style="fill:#AE4E32;" d="M371.11,402h-41.893c-22.036,11.096-46.907,17.356-73.217,17.356c-0.112,0-0.222-0.005-0.333-0.006
	v22.646c0.111,0,0.222,0.004,0.333,0.004C299.427,442,339.422,427.037,371.11,402z"/>
<path style="fill:#FF6838;" d="M256,92.644c90.075,0,163.356,73.281,163.356,163.356c0,9.632-0.844,19.071-2.452,28.25h12.713
	v38.465C437.607,301.995,442,279.502,442,256c0-102.561-83.439-186-186-186S70,153.439,70,256c0,23.502,4.393,45.995,12.382,66.715
	V288h13.417c-2.064-10.352-3.156-21.05-3.156-32C92.644,165.925,165.925,92.644,256,92.644z"/>
<path style="fill:#AE4E32;" d="M442,256c0-102.561-83.439-186-186-186c-0.111,0-0.222,0.004-0.333,0.004v22.644
	c0.111,0,0.222-0.004,0.333-0.004c90.075,0,163.356,73.281,163.356,163.356c0,9.632-0.844,19.071-2.452,28.25h12.713v38.465
	C437.607,301.995,442,279.502,442,256z"/>
<ellipse style="fill:#E0E0E0;" cx="352.78" cy="268.14" rx="76.842" ry="23.777"/>
<g>
	<path style="fill:#C0C0C0;" d="M275.935,292.948c0,13.132,34.403,23.777,76.842,23.777s76.842-10.646,76.842-23.777v-24.803
		c0,13.132-34.403,23.777-76.842,23.777s-76.842-10.646-76.842-23.777V292.948z"/>
	<path style="fill:#C0C0C0;" d="M275.935,326.425c0,13.132,34.403,23.777,76.842,23.777s76.842-10.646,76.842-23.777v-24.803
		c0,13.132-34.403,23.777-76.842,23.777s-76.842-10.646-76.842-23.777V326.425z"/>
	<path style="fill:#C0C0C0;" d="M275.935,359.903c0,13.132,34.403,23.777,76.842,23.777s76.842-10.646,76.842-23.777V335.1
		c0,13.132-34.403,23.777-76.842,23.777s-76.842-10.646-76.842-23.777V359.903z"/>
	<path style="fill:#C0C0C0;" d="M275.935,393.381c0,13.132,34.403,23.777,76.842,23.777s76.842-10.646,76.842-23.777v-24.803
		c0,13.132-34.403,23.777-76.842,23.777s-76.842-10.646-76.842-23.777V393.381z"/>
</g>
<ellipse style="fill:#FFFFFF;" cx="159.22" cy="268.14" rx="76.842" ry="23.777"/>
<g>
	<path style="fill:#E0E0E0;" d="M82.382,292.948c0,13.132,34.403,23.777,76.842,23.777s76.842-10.646,76.842-23.777v-24.803
		c0,13.132-34.403,23.777-76.842,23.777s-76.842-10.646-76.842-23.777C82.382,268.145,82.382,292.948,82.382,292.948z"/>
	<path style="fill:#E0E0E0;" d="M82.382,326.425c0,13.132,34.403,23.777,76.842,23.777s76.842-10.646,76.842-23.777v-24.803
		c0,13.132-34.403,23.777-76.842,23.777s-76.842-10.646-76.842-23.777C82.382,301.622,82.382,326.425,82.382,326.425z"/>
	<path style="fill:#E0E0E0;" d="M82.382,359.903c0,13.132,34.403,23.777,76.842,23.777s76.842-10.646,76.842-23.777V335.1
		c0,13.132-34.403,23.777-76.842,23.777S82.382,348.232,82.382,335.1V359.903z"/>
	<path style="fill:#E0E0E0;" d="M82.382,393.381c0,13.132,34.403,23.777,76.842,23.777s76.842-10.646,76.842-23.777v-24.803
		c0,13.132-34.403,23.777-76.842,23.777s-76.842-10.646-76.842-23.777C82.382,368.578,82.382,393.381,82.382,393.381z"/>
</g>
<ellipse style="fill:#FFFFFF;" cx="256" cy="86.57" rx="76.842" ry="23.777"/>
<g>
	<path style="fill:#E0E0E0;" d="M256,62.796c-0.112,0-0.222,0.002-0.333,0.003v47.55c0.112,0,0.221,0.003,0.333,0.003
		c42.438,0,76.842-10.646,76.842-23.777C332.842,73.441,298.438,62.796,256,62.796z"/>
	<path style="fill:#E0E0E0;" d="M256,110.351c-42.438,0-76.842-10.646-76.842-23.777v24.803c0,13.132,34.403,23.778,76.842,23.778
		s76.842-10.646,76.842-23.778V86.573C332.842,99.705,298.438,110.351,256,110.351z"/>
</g>
<path style="fill:#C0C0C0;" d="M256,110.351c-0.112,0-0.222-0.002-0.333-0.003v24.803c0.112,0,0.221,0.003,0.333,0.003
	c42.438,0,76.842-10.646,76.842-23.778V86.573C332.842,99.705,298.438,110.351,256,110.351z"/>
<path style="fill:#E0E0E0;" d="M179.158,144.854c0,13.132,34.403,23.777,76.842,23.777s76.842-10.646,76.842-23.777v-24.803
	c0,13.132-34.403,23.777-76.842,23.777s-76.842-10.646-76.842-23.777L179.158,144.854L179.158,144.854z"/>
<path style="fill:#C0C0C0;" d="M256,143.828c-0.112,0-0.222-0.002-0.333-0.003v24.803c0.112,0,0.221,0.003,0.333,0.003
	c42.438,0,76.842-10.646,76.842-23.778V120.05C332.842,133.183,298.438,143.828,256,143.828z"/>
<path style="fill:#E0E0E0;" d="M179.158,178.332c0,13.132,34.403,23.777,76.842,23.777s76.842-10.646,76.842-23.777v-24.803
	c0,13.132-34.403,23.777-76.842,23.777s-76.842-10.646-76.842-23.777L179.158,178.332L179.158,178.332z"/>
<path style="fill:#C0C0C0;" d="M256,177.306c-0.112,0-0.222-0.002-0.333-0.002v24.803c0.112,0,0.221,0.003,0.333,0.003
	c42.438,0,76.842-10.646,76.842-23.777V153.53C332.842,166.66,298.438,177.306,256,177.306z"/>
<path style="fill:#E0E0E0;" d="M179.158,211.809c0,13.132,34.403,23.777,76.842,23.777s76.842-10.646,76.842-23.777v-24.803
	c0,13.132-34.403,23.777-76.842,23.777s-76.842-10.646-76.842-23.777L179.158,211.809L179.158,211.809z"/>
<path style="fill:#C0C0C0;" d="M256,210.783c-0.112,0-0.222-0.002-0.333-0.002v24.803c0.112,0,0.221,0.003,0.333,0.003
	c42.438,0,76.842-10.646,76.842-23.778v-24.803C332.842,200.138,298.438,210.783,256,210.783z"/>
<g>
</g>
<g>
</g>
<g>
</g>
<g>
</g>
<g>
</g>
<g>
</g>
<g>
</g>
<g>
</g>
<g>
</g>
<g>
</g>
<g>
</g>
<g>
</g>
<g>
</g>
<g>
</g>
<g>
</g>
</svg>
