<?xml version="1.0" encoding="iso-8859-1"?>
<!-- Generator: Adobe Illustrator 19.0.0, SVG Export Plug-In . SVG Version: 6.00 Build 0)  -->
<svg version="1.1" id="Capa_1" xmlns="http://www.w3.org/2000/svg" xmlns:xlink="http://www.w3.org/1999/xlink" x="0px" y="0px"
	 viewBox="0 0 512 512" style="enable-background:new 0 0 512 512;" xml:space="preserve">
<circle style="fill:#590F38;" cx="256" cy="256" r="256"/>
<path style="fill:#3F0B2A;" d="M512,256c0-6.552-0.249-13.046-0.732-19.474L399.707,124.965l-284.37,74.408l67.24,66.274
	l-10.736,0.067l-64.376-64.376v8.6l10.197,56.113l82.429,82.35l-6.461,3.816l-86.166-86.166v9.075l20.434,115.918l-31.79-2.952
	l113.756,119.754C224.831,510.569,240.248,512,256,512C397.385,512,512,397.385,512,256z"/>
<path style="fill:#E0E0E0;" d="M256,90.664c-0.08,0-0.16,0.001-0.24,0.001c-0.031,0-0.062,0-0.093,0l0,0
	c-81.88,0.056-148.202,20.611-148.202,45.961v47.945c0,25.384,66.502,45.962,148.535,45.962s148.535-20.578,148.535-45.962v-47.945
	C404.535,111.242,338.034,90.664,256,90.664z"/>
<ellipse style="fill:#FFFFFF;" cx="256" cy="136.63" rx="148.53" ry="45.962"/>
<path style="fill:#E0E0E0;" d="M256,90.664c-0.111,0-0.222,0.001-0.333,0.001v91.921c0.111,0,0.222,0.001,0.333,0.001
	c82.034,0,148.535-20.578,148.535-45.962S338.034,90.664,256,90.664z"/>
<path style="fill:#C0C0C0;" d="M256,182.588c-0.111,0-0.222-0.001-0.333-0.001v47.945c0.111,0,0.222,0.001,0.333,0.001
	c82.034,0,148.535-20.578,148.535-45.962v-47.945C404.535,162.01,338.034,182.588,256,182.588z"/>
<path style="fill:#E0E0E0;" d="M107.465,249.283c0,25.384,66.502,45.962,148.535,45.962s148.535-20.578,148.535-45.962v-47.945
	c0,25.384-66.502,45.962-148.535,45.962s-148.535-20.578-148.535-45.962V249.283z"/>
<path style="fill:#C0C0C0;" d="M256,247.3c-0.111,0-0.222-0.001-0.333-0.001v47.945c0.111,0,0.222,0.001,0.333,0.001
	c82.034,0,148.535-20.578,148.535-45.962v-47.945C404.535,226.722,338.034,247.3,256,247.3z"/>
<path style="fill:#E0E0E0;" d="M107.465,313.995c0,25.384,66.502,45.962,148.535,45.962s148.535-20.578,148.535-45.962V266.05
	c0,25.384-66.502,45.962-148.535,45.962s-148.535-20.578-148.535-45.962V313.995z"/>
<path style="fill:#C0C0C0;" d="M256,312.012c-0.111,0-0.222-0.001-0.333-0.001v47.945c0.111,0,0.222,0.001,0.333,0.001
	c82.034,0,148.535-20.578,148.535-45.962V266.05C404.535,291.434,338.034,312.012,256,312.012z"/>
<path style="fill:#E0E0E0;" d="M107.465,378.708c0,25.384,66.502,45.962,148.535,45.962s148.535-20.578,148.535-45.962v-47.945
	c0,25.384-66.502,45.962-148.535,45.962s-148.535-20.578-148.535-45.962V378.708z"/>
<path style="fill:#C0C0C0;" d="M256,376.725c-0.111,0-0.222-0.001-0.333-0.001v47.945c0.111,0,0.222,0.001,0.333,0.001
	c82.034,0,148.535-20.578,148.535-45.962v-47.945C404.535,356.146,338.034,376.725,256,376.725z"/>
<path style="fill:#FF6838;" d="M129.744,147.813c-37.152,0-67.27,30.118-67.27,67.27c0,24.895,13.534,46.616,33.635,58.248v19.81
	l19.159,13.264l-19.159,13.632v20.274l19.159,13.264l-19.159,19.159v15.358l32.703,24.114l34.567-24.114v-114.76
	c20.101-11.633,33.635-33.353,33.635-58.248C197.014,177.931,166.896,147.813,129.744,147.813z M129.744,203.098
	c-10.889,0-19.717-8.828-19.717-19.717s8.828-19.717,19.717-19.717s19.717,8.828,19.717,19.717S140.633,203.098,129.744,203.098z"/>
<path style="fill:#AE4E32;" d="M129.744,147.813c-0.313,0-0.621,0.019-0.932,0.024v15.875c0.311-0.015,0.618-0.047,0.932-0.047
	c10.889,0,19.717,8.828,19.717,19.717s-8.828,19.717-19.717,19.717c-0.315,0-0.621-0.033-0.932-0.047v209.155v-0.001l34.567-24.114
	v-114.76c20.101-11.633,33.635-33.353,33.635-58.248C197.014,177.931,166.896,147.813,129.744,147.813z"/>
<g>
</g>
<g>
</g>
<g>
</g>
<g>
</g>
<g>
</g>
<g>
</g>
<g>
</g>
<g>
</g>
<g>
</g>
<g>
</g>
<g>
</g>
<g>
</g>
<g>
</g>
<g>
</g>
<g>
</g>
</svg>
