<?xml version="1.0" encoding="iso-8859-1"?>
<!-- Generator: Adobe Illustrator 19.0.0, SVG Export Plug-In . SVG Version: 6.00 Build 0)  -->
<svg version="1.1" id="Capa_1" xmlns="http://www.w3.org/2000/svg" xmlns:xlink="http://www.w3.org/1999/xlink" x="0px" y="0px"
	 viewBox="0 0 512 512" style="enable-background:new 0 0 512 512;" xml:space="preserve">
<circle style="fill:#FF6838;" cx="256" cy="256" r="256"/>
<path style="fill:#AE4E32;" d="M512,256c0-12.275-0.883-24.342-2.554-36.156L406.542,116.94L65.833,387.5L178.32,499.986
	C202.821,507.78,228.917,512,256,512C397.385,512,512,397.385,512,256z"/>
<rect x="190.83" y="116.94" style="fill:#FFFFFF;" width="215.71" height="163.75"/>
<rect x="298.69" y="116.94" style="fill:#E0E0E0;" width="107.86" height="163.75"/>
<rect x="190.83" y="116.94" style="fill:#C0C0C0;" width="215.71" height="21.07"/>
<rect x="298.69" y="116.94" style="fill:#758F9B;" width="107.85" height="21.07"/>
<g>
	<circle style="fill:#005C83;" cx="203.82" cy="127.47" r="5.84"/>
	<circle style="fill:#005C83;" cx="221.34" cy="127.47" r="5.84"/>
	<circle style="fill:#005C83;" cx="238.87" cy="127.47" r="5.84"/>
</g>
<rect x="128.33" y="170.35" style="fill:#E0E0E0;" width="215.71" height="163.75"/>
<g>
	<rect x="236.19" y="170.35" style="fill:#C0C0C0;" width="107.86" height="163.75"/>
	<rect x="128.33" y="170.35" style="fill:#C0C0C0;" width="215.71" height="21.07"/>
</g>
<rect x="236.19" y="170.35" style="fill:#758F9B;" width="107.85" height="21.07"/>
<g>
	<circle style="fill:#005C83;" cx="141.32" cy="180.88" r="5.84"/>
	<circle style="fill:#005C83;" cx="158.84" cy="180.88" r="5.84"/>
	<circle style="fill:#005C83;" cx="176.37" cy="180.88" r="5.84"/>
</g>
<rect x="65.833" y="223.75" style="fill:#FFFFFF;" width="215.71" height="163.75"/>
<rect x="173.69" y="223.75" style="fill:#E0E0E0;" width="107.86" height="163.75"/>
<rect x="65.833" y="223.75" style="fill:#C0C0C0;" width="215.71" height="21.07"/>
<rect x="173.69" y="223.75" style="fill:#758F9B;" width="107.85" height="21.07"/>
<g>
	<circle style="fill:#005C83;" cx="78.82" cy="234.29" r="5.84"/>
	<circle style="fill:#005C83;" cx="96.34" cy="234.29" r="5.84"/>
	<circle style="fill:#005C83;" cx="113.87" cy="234.29" r="5.84"/>
</g>
<g>
</g>
<g>
</g>
<g>
</g>
<g>
</g>
<g>
</g>
<g>
</g>
<g>
</g>
<g>
</g>
<g>
</g>
<g>
</g>
<g>
</g>
<g>
</g>
<g>
</g>
<g>
</g>
<g>
</g>
</svg>
