<?xml version="1.0" encoding="iso-8859-1"?>
<!-- Generator: Adobe Illustrator 19.0.0, SVG Export Plug-In . SVG Version: 6.00 Build 0)  -->
<svg version="1.1" id="Capa_1" xmlns="http://www.w3.org/2000/svg" xmlns:xlink="http://www.w3.org/1999/xlink" x="0px" y="0px"
	 viewBox="0 0 512 512" style="enable-background:new 0 0 512 512;" xml:space="preserve">
<circle style="fill:#005C83;" cx="256" cy="256" r="256"/>
<path style="fill:#00263F;" d="M512,256c0-14.896-1.287-29.489-3.729-43.687l-84.521-84.521L88.25,394.208l111.598,111.598
	C217.92,509.851,236.708,512,256,512C397.385,512,512,397.385,512,256z"/>
<rect x="304.25" y="127.79" style="fill:#8CC63F;" width="119.5" height="38.583"/>
<rect x="196.25" y="127.79" style="fill:#FCEE21;" width="119.5" height="38.583"/>
<rect x="88.25" y="127.79" style="fill:#D9E021;" width="119.5" height="38.583"/>
<rect x="304.25" y="165.76" style="fill:#F2F2F2;" width="119.5" height="38.583"/>
<rect x="196.25" y="165.76" style="fill:#E6E6E6;" width="119.5" height="38.583"/>
<rect x="88.25" y="165.76" style="fill:#F2F2F2;" width="119.5" height="38.583"/>
<rect x="304.25" y="203.74" style="fill:#E6E6E6;" width="119.5" height="38.583"/>
<rect x="196.25" y="203.74" style="fill:#CCCCCC;" width="119.5" height="38.583"/>
<rect x="88.25" y="203.74" style="fill:#E6E6E6;" width="119.5" height="38.583"/>
<rect x="304.25" y="241.71" style="fill:#F2F2F2;" width="119.5" height="38.583"/>
<rect x="196.25" y="241.71" style="fill:#E6E6E6;" width="119.5" height="38.583"/>
<rect x="88.25" y="241.71" style="fill:#F2F2F2;" width="119.5" height="38.583"/>
<rect x="304.25" y="279.68" style="fill:#E6E6E6;" width="119.5" height="38.583"/>
<rect x="196.25" y="279.68" style="fill:#CCCCCC;" width="119.5" height="38.583"/>
<rect x="88.25" y="279.68" style="fill:#E6E6E6;" width="119.5" height="38.583"/>
<rect x="304.25" y="317.65" style="fill:#F2F2F2;" width="119.5" height="38.583"/>
<rect x="196.25" y="317.65" style="fill:#E6E6E6;" width="119.5" height="38.583"/>
<rect x="88.25" y="317.65" style="fill:#F2F2F2;" width="119.5" height="38.583"/>
<rect x="304.25" y="355.62" style="fill:#E6E6E6;" width="119.5" height="38.583"/>
<rect x="196.25" y="355.62" style="fill:#CCCCCC;" width="119.5" height="38.583"/>
<rect x="88.25" y="355.62" style="fill:#E6E6E6;" width="119.5" height="38.583"/>
<g>
</g>
<g>
</g>
<g>
</g>
<g>
</g>
<g>
</g>
<g>
</g>
<g>
</g>
<g>
</g>
<g>
</g>
<g>
</g>
<g>
</g>
<g>
</g>
<g>
</g>
<g>
</g>
<g>
</g>
</svg>
