<?xml version="1.0" encoding="iso-8859-1"?>
<!-- Generator: Adobe Illustrator 19.0.0, SVG Export Plug-In . SVG Version: 6.00 Build 0)  -->
<svg version="1.1" id="Capa_1" xmlns="http://www.w3.org/2000/svg" xmlns:xlink="http://www.w3.org/1999/xlink" x="0px" y="0px"
	 viewBox="0 0 512 512" style="enable-background:new 0 0 512 512;" xml:space="preserve">
<circle style="fill:#FFDC00;" cx="256" cy="256" r="256"/>
<path style="fill:#FFC000;" d="M425.771,172.579l-110.008,29.066l57.062,57.061l-7.26,6.933l-95.973-95.973l-8.473,122.484
	L141.548,172.579L59.597,315.893L255.7,511.996c0.101,0,0.2,0.004,0.3,0.004c140.458,0,254.476-113.122,255.965-253.228
	L425.771,172.579z"/>
<polygon style="fill:#005C83;" points="242.394,169.667 242.398,263.828 212.623,234.053 193.391,253.286 255.998,315.893 
	318.602,253.286 299.369,234.053 269.596,263.828 269.592,169.667 "/>
<polygon style="fill:#00263F;" points="255.999,315.893 318.602,253.286 299.369,234.053 269.596,263.828 269.592,169.667 
	255.999,169.667 "/>
<path style="fill:#590F38;" d="M59.597,315.893l55.104-143.314h26.847l54.903,143.314h-35.122l-11.102-32.094h-44.609
	l-10.899,32.094H59.597z M128.023,207.701l-17.157,53.289h33.709L128.023,207.701z"/>
<path style="fill:#2D051D;" d="M312.938,291.065l74.482-89.42h-71.656v-29.066h110.008v24.828l-71.253,89.42h72.061v29.066H312.938
	V291.065z"/>
<g>
</g>
<g>
</g>
<g>
</g>
<g>
</g>
<g>
</g>
<g>
</g>
<g>
</g>
<g>
</g>
<g>
</g>
<g>
</g>
<g>
</g>
<g>
</g>
<g>
</g>
<g>
</g>
<g>
</g>
</svg>
