<?xml version="1.0" encoding="iso-8859-1"?>
<!-- Generator: Adobe Illustrator 19.0.0, SVG Export Plug-In . SVG Version: 6.00 Build 0)  -->
<svg version="1.1" id="Capa_1" xmlns="http://www.w3.org/2000/svg" xmlns:xlink="http://www.w3.org/1999/xlink" x="0px" y="0px"
	 viewBox="0 0 512 512" style="enable-background:new 0 0 512 512;" xml:space="preserve">
<circle style="fill:#FFDC00;" cx="256" cy="256" r="256"/>
<path style="fill:#FFC000;" d="M512,256c0-9.861-0.577-19.585-1.663-29.156L408.186,124.693L103.814,201.9L238.64,336.726
	l-132.783,59.43l113.177,113.177C231.105,511.079,243.444,512,256,512C397.385,512,512,397.385,512,256z"/>
<rect x="103.81" y="124.69" style="fill:#333333;" width="304.37" height="77.21"/>
<rect x="255.67" y="124.69" style="fill:#1A1A1A;" width="152.52" height="77.21"/>
<rect x="353.99" y="149.19" style="fill:#8CC63F;" width="28.21" height="28.21"/>
<rect x="314.83" y="149.19" style="fill:#FFDC00;" width="28.21" height="28.21"/>
<rect x="103.81" y="217.4" style="fill:#333333;" width="304.37" height="77.21"/>
<rect x="255.67" y="217.4" style="fill:#1A1A1A;" width="152.52" height="77.21"/>
<rect x="353.99" y="241.9" style="fill:#8CC63F;" width="28.21" height="28.21"/>
<rect x="314.83" y="241.9" style="fill:#FFDC00;" width="28.21" height="28.21"/>
<rect x="103.81" y="310.1" style="fill:#333333;" width="304.37" height="77.21"/>
<rect x="255.67" y="310.1" style="fill:#1A1A1A;" width="152.52" height="77.21"/>
<rect x="353.99" y="334.6" style="fill:#8CC63F;" width="28.21" height="28.21"/>
<rect x="314.83" y="334.6" style="fill:#FFDC00;" width="28.21" height="28.21"/>
<circle style="fill:#FF6838;" cx="172.53" cy="334.31" r="90.94"/>
<path style="fill:#AE4E32;" d="M172.526,243.365c-0.064,0-0.128,0.002-0.193,0.002v181.884c0.064,0,0.128,0.002,0.193,0.002
	c50.227,0,90.944-40.717,90.944-90.944S222.753,243.365,172.526,243.365z"/>
<path style="fill:#FFFFFF;" d="M198.224,348.611c-6.73,0-12.854,2.59-17.435,6.825l-29.952-17.227
	c0.194-1.272,0.294-2.574,0.294-3.899c0-1.069-0.073-2.12-0.2-3.155l31.201-16.814c4.405,3.542,9.998,5.667,16.091,5.667
	c14.193,0,25.698-11.505,25.698-25.698s-11.505-25.698-25.698-25.698s-25.698,11.505-25.698,25.698c0,0.818,0.042,1.627,0.117,2.426
	l-31.702,17.085c-4.31-3.267-9.681-5.208-15.507-5.208c-14.193,0-25.698,11.505-25.698,25.698s11.505,25.698,25.698,25.698
	c5.557,0,10.697-1.77,14.9-4.767l32.206,18.523c-0.004,0.182-0.014,0.363-0.014,0.546c0,14.193,11.505,25.698,25.698,25.698
	s25.698-11.505,25.698-25.698S212.417,348.611,198.224,348.611z"/>
<g>
	<path style="fill:#E0E0E0;" d="M182.133,314.34c4.405,3.542,9.998,5.667,16.091,5.667c14.193,0,25.698-11.505,25.698-25.698
		s-11.505-25.698-25.698-25.698s-25.698,11.505-25.698,25.698c0,0.818,0.042,1.627,0.117,2.426l-0.31,0.167v22.72L182.133,314.34z"
		/>
	<path style="fill:#E0E0E0;" d="M198.224,348.611c-6.73,0-12.854,2.59-17.435,6.825l-8.456-4.864v23.072l0.206,0.119
		c-0.004,0.182-0.014,0.363-0.014,0.546c0,14.193,11.505,25.698,25.698,25.698s25.698-11.505,25.698-25.698
		S212.417,348.611,198.224,348.611z"/>
</g>
<g>
</g>
<g>
</g>
<g>
</g>
<g>
</g>
<g>
</g>
<g>
</g>
<g>
</g>
<g>
</g>
<g>
</g>
<g>
</g>
<g>
</g>
<g>
</g>
<g>
</g>
<g>
</g>
<g>
</g>
</svg>
