<?xml version="1.0" encoding="iso-8859-1"?>
<!-- Generator: Adobe Illustrator 19.0.0, SVG Export Plug-In . SVG Version: 6.00 Build 0)  -->
<svg version="1.1" id="Capa_1" xmlns="http://www.w3.org/2000/svg" xmlns:xlink="http://www.w3.org/1999/xlink" x="0px" y="0px"
	 viewBox="0 0 512 512" style="enable-background:new 0 0 512 512;" xml:space="preserve">
<circle style="fill:#FFDC00;" cx="256" cy="256" r="256"/>
<path style="fill:#FFC000;" d="M511.751,266.966L327,82.215l-142,82.766l52.519,52.519H133.667l-46.05,123.985l170.489,170.489
	C394.851,510.869,506.034,402.565,511.751,266.966z"/>
<polygon style="fill:#FF6838;" points="268.5,205.833 268.5,109.896 243.5,109.896 243.5,205.833 116.5,205.833 116.5,319.896 
	141.5,319.896 141.5,230.833 243.5,230.833 243.5,319.896 268.5,319.896 268.5,230.833 370.5,230.833 370.5,319.896 395.5,319.896 
	395.5,205.833 "/>
<polygon style="fill:#AE4E32;" points="268.5,205.833 268.5,109.896 255.667,109.896 255.667,205.833 255.667,230.833 
	255.667,319.896 268.5,319.896 268.5,230.833 370.5,230.833 370.5,319.896 395.5,319.896 395.5,205.833 "/>
<g>
	<rect x="87.62" y="258.72" style="fill:#0074A3;" width="82.77" height="82.77"/>
	<rect x="214.62" y="258.72" style="fill:#0074A3;" width="82.77" height="82.77"/>
</g>
<rect x="255.67" y="258.72" style="fill:#005C83;" width="41.716" height="82.77"/>
<rect x="185" y="82.22" style="fill:#0074A3;" width="142" height="82.77"/>
<g>
	<rect x="255.67" y="82.22" style="fill:#005C83;" width="71.33" height="82.77"/>
	<rect x="341.62" y="258.72" style="fill:#005C83;" width="82.77" height="82.77"/>
</g>
<g>
</g>
<g>
</g>
<g>
</g>
<g>
</g>
<g>
</g>
<g>
</g>
<g>
</g>
<g>
</g>
<g>
</g>
<g>
</g>
<g>
</g>
<g>
</g>
<g>
</g>
<g>
</g>
<g>
</g>
</svg>
