<?xml version="1.0" encoding="iso-8859-1"?>
<!-- Generator: Adobe Illustrator 19.0.0, SVG Export Plug-In . SVG Version: 6.00 Build 0)  -->
<svg version="1.1" id="Capa_1" xmlns="http://www.w3.org/2000/svg" xmlns:xlink="http://www.w3.org/1999/xlink" x="0px" y="0px"
	 viewBox="0 0 512 512" style="enable-background:new 0 0 512 512;" xml:space="preserve">
<circle style="fill:#35CCFF;" cx="256" cy="256" r="256"/>
<path style="fill:#00BAFF;" d="M512,256c0-24.672-3.5-48.524-10.013-71.098l-80.963-80.963l-97.357,200.394L90.976,421.667
	l73.448,73.448C192.861,506.012,223.729,512,256,512C397.385,512,512,397.385,512,256z"/>
<polygon style="fill:#FFDC00;" points="90.976,144.482 189.167,203.397 273.421,131.179 341.838,186.293 421.024,103.939 
	421.024,351 90.976,351 "/>
<polygon style="fill:#FFC000;" points="421.024,103.939 341.838,186.293 273.421,131.179 255.667,146.397 255.667,351 421.024,351 
	"/>
<polygon style="fill:#590F38;" points="90.976,215.149 189.167,274.064 273.421,201.846 341.838,256.959 421.024,174.606 
	421.024,421.667 90.976,421.667 "/>
<polygon style="fill:#3A0A27;" points="421.024,174.606 341.838,256.959 273.421,201.846 255.667,217.064 255.667,421.667 
	421.024,421.667 "/>
<g>
</g>
<g>
</g>
<g>
</g>
<g>
</g>
<g>
</g>
<g>
</g>
<g>
</g>
<g>
</g>
<g>
</g>
<g>
</g>
<g>
</g>
<g>
</g>
<g>
</g>
<g>
</g>
<g>
</g>
</svg>
