<?xml version="1.0" encoding="iso-8859-1"?>
<!-- Generator: Adobe Illustrator 19.0.0, SVG Export Plug-In . SVG Version: 6.00 Build 0)  -->
<svg version="1.1" id="Capa_1" xmlns="http://www.w3.org/2000/svg" xmlns:xlink="http://www.w3.org/1999/xlink" x="0px" y="0px"
	 viewBox="0 0 512 512" style="enable-background:new 0 0 512 512;" xml:space="preserve">
<circle style="fill:#FFDC00;" cx="256" cy="256" r="256"/>
<path style="fill:#FFC000;" d="M512,256c0-2.348-0.037-4.688-0.099-7.021l-82.305-82.305l-87.289,108.878L233.429,166.673
	L65.833,286.506l82.016,82.016l-60.516,7.811l133.211,133.211C232.135,511.151,243.968,512,256,512C397.385,512,512,397.385,512,256
	z"/>
<rect x="87.33" y="359" style="fill:#4D4D4D;" width="337.33" height="17.333"/>
<rect x="255.67" y="359" style="fill:#333333;" width="169" height="17.333"/>
<rect x="126.46" y="280.24" style="fill:#1A1A1A;" width="46.35" height="30.11"/>
<rect x="149" y="280.24" width="23.804" height="30.11"/>
<rect x="137.26" y="300.91" style="fill:#0074A3;" width="24.738" height="58.09"/>
<rect x="149" y="300.91" style="fill:#005C83;" width="13" height="58.09"/>
<rect x="65.833" y="166.67" style="fill:#333333;" width="167.59" height="119.83"/>
<rect x="149" y="166.67" style="fill:#1A1A1A;" width="84.43" height="119.83"/>
<rect x="117.48" y="300.2" style="fill:#333333;" width="64.3" height="20.298"/>
<rect x="149" y="300.2" style="fill:#1A1A1A;" width="32.781" height="20.298"/>
<rect x="79.55" y="177.63" style="fill:#B9EAFF;" width="140.85" height="97.92"/>
<rect x="149" y="177.63" style="fill:#35CCFF;" width="71.4" height="97.92"/>
<rect x="114.91" y="351.67" style="fill:#333333;" width="69.45" height="32"/>
<g>
	<rect x="149" y="351.67" style="fill:#1A1A1A;" width="35.35" height="32"/>
	<rect x="322.62" y="280.24" style="fill:#1A1A1A;" width="46.35" height="30.11"/>
</g>
<rect x="345.67" y="280.24" width="23.304" height="30.11"/>
<rect x="333.43" y="300.91" style="fill:#0074A3;" width="24.738" height="58.09"/>
<rect x="345.67" y="300.91" style="fill:#005C83;" width="12.5" height="58.09"/>
<rect x="262" y="166.67" style="fill:#333333;" width="167.59" height="119.83"/>
<rect x="345.67" y="166.67" style="fill:#1A1A1A;" width="83.929" height="119.83"/>
<rect x="313.65" y="300.2" style="fill:#333333;" width="64.3" height="20.298"/>
<rect x="345.67" y="300.2" style="fill:#1A1A1A;" width="32.28" height="20.298"/>
<rect x="275.72" y="177.63" style="fill:#B9EAFF;" width="140.85" height="97.92"/>
<rect x="345.67" y="177.63" style="fill:#35CCFF;" width="70.903" height="97.92"/>
<rect x="311.07" y="351.67" style="fill:#333333;" width="69.45" height="32"/>
<rect x="345.67" y="351.67" style="fill:#1A1A1A;" width="34.855" height="32"/>
<g>
</g>
<g>
</g>
<g>
</g>
<g>
</g>
<g>
</g>
<g>
</g>
<g>
</g>
<g>
</g>
<g>
</g>
<g>
</g>
<g>
</g>
<g>
</g>
<g>
</g>
<g>
</g>
<g>
</g>
</svg>
