<?xml version="1.0" encoding="iso-8859-1"?>
<!-- Generator: Adobe Illustrator 19.0.0, SVG Export Plug-In . SVG Version: 6.00 Build 0)  -->
<svg version="1.1" id="Capa_1" xmlns="http://www.w3.org/2000/svg" xmlns:xlink="http://www.w3.org/1999/xlink" x="0px" y="0px"
	 viewBox="0 0 512 512" style="enable-background:new 0 0 512 512;" xml:space="preserve">
<circle style="fill:#662E57;" cx="256" cy="256" r="256"/>
<path style="fill:#590F38;" d="M512,256c0-4.363-0.111-8.701-0.327-13.01l-65.33-65.33L336.678,280.656L229.011,172.989
	L56.97,338.449l172.149,172.149C237.954,511.52,246.921,512,256,512C397.385,512,512,397.385,512,256z"/>
<polygon style="fill:#FFFFFF;" points="304.381,329.147 197.809,224.763 101.032,319.552 81.44,299.549 197.809,185.57 
	304.381,289.954 401.157,195.165 420.749,215.168 "/>
<polygon style="fill:#E0E0E0;" points="420.749,215.168 401.157,195.165 304.381,289.954 255.667,242.24 255.667,281.433 
	304.381,329.147 "/>
<g>
	<circle style="fill:#FFDC00;" cx="197.81" cy="205.17" r="44.833"/>
	<circle style="fill:#FFDC00;" cx="91.24" cy="309.55" r="44.833"/>
</g>
<g>
	<circle style="fill:#FFC000;" cx="410.95" cy="205.17" r="44.833"/>
	<circle style="fill:#FFC000;" cx="304.38" cy="309.55" r="44.833"/>
</g>
<g>
</g>
<g>
</g>
<g>
</g>
<g>
</g>
<g>
</g>
<g>
</g>
<g>
</g>
<g>
</g>
<g>
</g>
<g>
</g>
<g>
</g>
<g>
</g>
<g>
</g>
<g>
</g>
<g>
</g>
</svg>
