<?xml version="1.0" encoding="iso-8859-1"?>
<!-- Generator: Adobe Illustrator 19.0.0, SVG Export Plug-In . SVG Version: 6.00 Build 0)  -->
<svg version="1.1" id="Capa_1" xmlns="http://www.w3.org/2000/svg" xmlns:xlink="http://www.w3.org/1999/xlink" x="0px" y="0px"
	 viewBox="0 0 512 512" style="enable-background:new 0 0 512 512;" xml:space="preserve">
<circle style="fill:#FFDC00;" cx="256" cy="256" r="256"/>
<path style="fill:#FFC000;" d="M511.993,256.545L337.133,80.478L253,48.333l-67.333,36l-53.638,87.049l142.026,142.026
	L86.274,387.953l119.015,119.015C221.681,510.262,238.637,512,256,512C397.203,512,511.698,397.678,511.993,256.545z"/>
<circle style="fill:#008CC3;" cx="256.16" cy="156.87" r="86.66"/>
<path style="fill:#0074A3;" d="M256.163,70.217c-0.166,0-0.33,0.005-0.496,0.006v173.298c0.166,0.001,0.33,0.006,0.496,0.006
	c47.858,0,86.655-38.797,86.655-86.655S304.021,70.217,256.163,70.217z"/>
<path style="fill:#005C83;" d="M363.15,150.336h-17c0-49.619-40.368-89.988-89.988-89.988c-49.619,0-89.987,40.368-89.987,89.988
	h-17c0-58.993,47.994-106.988,106.987-106.988S363.15,91.343,363.15,150.336z"/>
<path style="fill:#00263F;" d="M256.162,43.348c-0.166,0-0.33,0.006-0.495,0.006v17c0.165-0.001,0.33-0.006,0.495-0.006
	c49.62,0,89.988,40.368,89.988,89.988h17C363.15,91.343,315.155,43.348,256.162,43.348z"/>
<path style="fill:#0074A3;" d="M256.163,257.12c-81.524,0-150.059,55.536-169.889,130.833h339.778
	C406.222,312.656,337.687,257.12,256.163,257.12z"/>
<path style="fill:#005C83;" d="M256.163,257.12c-0.166,0-0.33,0.005-0.496,0.005v130.827h170.385
	C406.222,312.656,337.687,257.12,256.163,257.12z"/>
<path style="fill:#00263F;" d="M318.111,219.833H257v-17h61.111c13.54,0,24.556-11.015,24.556-24.555v-34.945h17v34.945
	C359.667,201.192,341.025,219.833,318.111,219.833z"/>
<rect x="230.33" y="197.67" style="fill:#FFD863;" width="53.33" height="27.333"/>
<rect x="255.67" y="197.67" style="fill:#FFCF35;" width="28" height="27.333"/>
<path style="fill:#AE4E32;" d="M356.077,182.667h-14.259v-59.103h14.259c16.321,0,29.551,13.231,29.551,29.551l0,0
	C385.629,169.436,372.398,182.667,356.077,182.667z"/>
<path style="fill:#FF6838;" d="M155.248,123.564h14.259v59.103h-14.259c-16.321,0-29.551-13.231-29.551-29.551l0,0
	C125.697,136.794,138.928,123.564,155.248,123.564z"/>
<g>
</g>
<g>
</g>
<g>
</g>
<g>
</g>
<g>
</g>
<g>
</g>
<g>
</g>
<g>
</g>
<g>
</g>
<g>
</g>
<g>
</g>
<g>
</g>
<g>
</g>
<g>
</g>
<g>
</g>
</svg>
