<?xml version="1.0" encoding="iso-8859-1"?>
<!-- Generator: Adobe Illustrator 19.0.0, SVG Export Plug-In . SVG Version: 6.00 Build 0)  -->
<svg version="1.1" id="Capa_1" xmlns="http://www.w3.org/2000/svg" xmlns:xlink="http://www.w3.org/1999/xlink" x="0px" y="0px"
	 viewBox="0 0 512 512" style="enable-background:new 0 0 512 512;" xml:space="preserve">
<circle style="fill:#FFDC00;" cx="256" cy="256" r="256"/>
<path style="fill:#FFC000;" d="M511.929,261.605L381.806,130.194L250,83.667l-61.667,19.329l-64,47.324L85,245l24.437,90.993
	L75.86,383.412L197.798,505.35C216.496,509.697,235.979,512,256,512C395.511,512,508.946,400.4,511.929,261.605z"/>
<path style="fill:#FF6838;" d="M256,434c-98.149,0-178-79.851-178-178c0-98.15,79.851-178,178-178s178,79.85,178,178
	C434,354.149,354.149,434,256,434z M256,98c-87.122,0-158,70.879-158,158c0,87.122,70.878,158,158,158s158-70.878,158-158
	C414,168.879,343.122,98,256,98z"/>
<path style="fill:#AE4E32;" d="M256,78c-0.111,0-0.222,0.004-0.333,0.004v20c0.111,0,0.222-0.004,0.333-0.004
	c87.122,0,158,70.879,158,158c0,87.122-70.878,158-158,158c-0.111,0-0.222-0.004-0.333-0.004v20c0.111,0,0.222,0.004,0.333,0.004
	c98.149,0,178-79.851,178-178C434,157.85,354.149,78,256,78z"/>
<circle style="fill:#008CC3;" cx="256.16" cy="103" r="40.907"/>
<g>
	<path style="fill:#0074A3;" d="M256.163,62.088c-0.166,0-0.33,0.011-0.496,0.013v81.79c0.166,0.002,0.33,0.013,0.496,0.013
		c22.593,0,40.907-18.315,40.907-40.908S278.755,62.088,256.163,62.088z"/>
	<path style="fill:#0074A3;" d="M256.163,150.32c-38.485,0-70.839,26.217-80.2,61.762h160.399
		C327.001,176.536,294.648,150.32,256.163,150.32z"/>
</g>
<path style="fill:#005C83;" d="M256.163,150.32c-0.166,0-0.33,0.01-0.496,0.011v61.752h80.695
	C327.001,176.536,294.648,150.32,256.163,150.32z"/>
<circle style="fill:#008CC3;" cx="156.06" cy="274.33" r="40.907"/>
<g>
	<path style="fill:#0074A3;" d="M156.06,321.65c-38.485,0-70.839,26.217-80.2,61.762h160.399
		C226.898,347.867,194.545,321.65,156.06,321.65z"/>
	<circle style="fill:#0074A3;" cx="364.62" cy="274.33" r="40.907"/>
</g>
<path style="fill:#005C83;" d="M364.619,321.65c-38.485,0-70.839,26.217-80.2,61.762h160.399
	C435.457,347.867,403.104,321.65,364.619,321.65z"/>
<g>
</g>
<g>
</g>
<g>
</g>
<g>
</g>
<g>
</g>
<g>
</g>
<g>
</g>
<g>
</g>
<g>
</g>
<g>
</g>
<g>
</g>
<g>
</g>
<g>
</g>
<g>
</g>
<g>
</g>
</svg>
